Format : AVI
Format/Info : Audio Video Interleave
File size : 1.37 GiB
Duration : 1h 36mn
Overall bit rate : 2 033 Kbps
Writing library : VirtualDub build 32842/release

Video
ID : 0
Format : MPEG-4 Visual
Format profile : Advanced Simple@L5
Format settings, BVOP : 3
Format settings, QPel : No
Format settings, GMC : No warppoints
Format settings, Matrix : Default (H.263)
Muxing mode : Packed bitstream
Codec ID : XVID
Codec ID/Hint : XviD
Duration : 1h 36mn
Bit rate : 1 895 Kbps
Width : 720 pixels
Height : 304 pixels
Display aspect ratio : 2.35:1
Frame rate : 25.000 fps
Color space : YUV
Chroma subsampling : 4:2:0
Bit depth : 8 bits
Scan type : Progressive
Compression mode : Lossy
Bits/(Pixel*Frame) : 0.346
Stream size : 1.28 GiB (93%)
Writing library : XviD 1.2.1 (UTC 2008-12-04)

Audio
ID : 1
Format : MPEG Audio
Format version : Version 1
Format profile : Layer 3
Codec ID : 55
Codec ID/Hint : MP3
Duration : 1h 36mn
Bit rate mode : Constant
Bit rate : 128 Kbps
Channel(s) : 2 channels
Sampling rate : 44.1 KHz
Compression mode : Lossy
Stream size : 88.3 MiB (6%)
Alignment : Split accross interleaves
Interleave, duration : 40 ms (1.00 video frame)
Interleave, preload duration : 500 ms





 
http://www.imdb.com/title/tt1628039/






Slotting comfortably into the generic mould created by more memorable predecessors, Craig Viveiros’s feature length debut, Ghosted, is all you would expect from a standard prison drama. A haunted and weathered John Lynch plays Jack, the model prisoner at the end of his stretch attempting to protect new inmate Paul (Martin Compston) from the influence of the sneering prison psychopath, Clay, menacingly portrayed by Craig Parkinson.


Although this film does not deviate far from the typical themes of revenge and redemption, it is solid and engaging, with an intriguing story and absorbing characters brought to life by a watchable cast. Strong, believable performances from a medley of proven British actors combine with the confident, skilful direction of Viveiros, creating an uneasy simmering tension which drives the narrative. Familiar issues are handled in an interesting, understated manner that lends a shocking subtly to the more disturbing scenes. This is used to greatest effect during the climax, where the suggestion of brutality that accompanies an unsurprising twist gives the film an emotional impact that prevents it from falling at the final hurdle.

However, the prison slang, threatening mumblings and angry growlings that are no doubt realistic, sometimes make the nuances of the plot and back-story difficult to follow. This disrupts the narrative flow and pulls the focus away from the drama.

Though the main characters are well developed, there are a few interesting figures, such as Ahmed (Art Malik of True Lies fame) and Ade (Hugh Quarshie from Star Wars Episode I), that are disappointingly under-used. Though they initially appear to have narrative significance, Viveiros fails to capitalise on their potential, meaning that these familiar on-screen presences never amount to anything more than a passing distraction.

Whilst Ghosted isn’t about to herald a new generation of modern prison dramas, it is a well crafted and engaging character drama that will entertain and satisfy fans of the genre.





















Source Used



Orphic ................Thanks



1 and only reason i reencoded this was to sort the audio out

so




Enjoy





Greetz to IMAGiNE,Flawl3ss,DiLLoN,BDK,NOiR,TOXiC,THC,Ez,Rx,Boobyblue,TaRiQ786,BHRG






 
http://www.leetleech.org/images/72268968460833651012.png